<?xml version="1.0" encoding="utf-8"?>
<!-- Generator: Adobe Illustrator 19.2.1, SVG Export Plug-In . SVG Version: 6.00 Build 0)  -->
<svg version="1.1" id="Layer_1" xmlns="http://www.w3.org/2000/svg" xmlns:xlink="http://www.w3.org/1999/xlink" x="0px" y="0px"
	 viewBox="0 0 64 64" style="enable-background:new 0 0 64 64;" xml:space="preserve">
<style type="text/css">
	.st0{fill:#FFFFFF;}
</style>
<g>
	<path class="st0" d="M32,0C14.3,0,0,14.3,0,32c0,17.7,14.3,32,32,32c17.7,0,32-14.3,32-32C64,14.3,49.7,0,32,0z M32,3.7
		c15.6,0,28.3,12.7,28.3,28.3c0,6.1-1.9,11.7-5.2,16.3c0-0.7-0.4-1.5-0.7-2.1c-0.4-0.8-0.1-1.3-0.1-1.3l0.4-1c0,0,0,0,0,0
		c0.7-1.6-0.6-2.2-0.6-2.2l-5.9-2.7c-2.2-1-3.2-2.4-3.2-2.4c-1.5-2-4.3-5.8-5.6-7.8c-1.8-2.7-4-2.1-4-2.1h-7.9
		c-1.7,0-3.1,1.7-3.1,1.7l-5.6,8.2c-1.1,1.5-2.3,2.2-2.7,2.4l-6,2.6c-1.8,0.8-1.5,2-1.2,2.6c0.1,0.3,0.3,0.6,0.5,0.9
		c0.1,0.2,0.4,0.8,0,1.5c0,0,0,0,0,0c-0.4,0.6-0.6,1.1-0.7,1.7C5.6,43.6,3.7,38.1,3.7,32C3.7,16.4,16.4,3.7,32,3.7z M15.3,44.6
		l3.9-1.4c1.6-0.6,2.7-1.9,2.7-1.9l1.3-1.6c0,0,0.8-0.9,0.8,0v6.7c0,0.3-0.2,0.8-1.2,0.6l-7.4-1.7C14.3,45.1,15.3,44.6,15.3,44.6
		L15.3,44.6z M42.6,42.2c0,0,0.8,0.9,1.9,1.2l4,1.2c0,0,0.9,0.4,0,0.6L40.9,47c-0.8,0.2-0.9-0.3-0.9-0.5V40c0,0,0-1.2,0.9,0
		c0,0,0,0,0,0L42.6,42.2z"/>
	<path class="st0" d="M32,24.2c3.1,0,5.6-2.5,5.6-5.6s-2.5-5.6-5.6-5.6c-3.1,0-5.5,2.5-5.5,5.6S28.9,24.2,32,24.2z"/>
</g>
</svg>
