<?xml version="1.0" encoding="utf-8"?>
<!-- Generator: Adobe Illustrator 19.2.1, SVG Export Plug-In . SVG Version: 6.00 Build 0)  -->
<svg version="1.1" id="Layer_1" xmlns="http://www.w3.org/2000/svg" xmlns:xlink="http://www.w3.org/1999/xlink" x="0px" y="0px"
	 viewBox="0 0 512 512" style="enable-background:new 0 0 512 512;" xml:space="preserve">
<style type="text/css">
	.st0{fill:#FFFFFF;}
</style>
<path class="st0" d="M256,206.4c-26.5,0-48.1,21.6-48.1,48.1c0,26.5,21.6,48.1,48.1,48.1c26.5,0,48.1-21.6,48.1-48.1
	C304.1,228,282.5,206.4,256,206.4 M256,117.3C128.4,117.3,0,256,0,256s128.4,138.7,256,138.7c127.6,0,256-138.7,256-138.7
	S383.6,117.3,256,117.3 M256,352.7c-54.2,0-98.1-43.9-98.1-98.2c0-54.2,43.9-98.1,98.1-98.1c54.2,0,98.2,43.9,98.2,98.1
	C354.2,308.8,310.2,352.7,256,352.7"/>
</svg>
