<?xml version="1.0" encoding="utf-8"?>
<!-- Generator: Adobe Illustrator 19.2.1, SVG Export Plug-In . SVG Version: 6.00 Build 0)  -->
<svg version="1.1" id="Layer_1" xmlns="http://www.w3.org/2000/svg" xmlns:xlink="http://www.w3.org/1999/xlink" x="0px" y="0px"
	 viewBox="0 0 64 64" style="enable-background:new 0 0 64 64;" xml:space="preserve">
<style type="text/css">
	.st0{fill:#FFFFFF;}
</style>
<g>
	<path class="st0" d="M10.6,29.7c3.9,0,7.1-3.2,7.1-7.1c0-0.2,0-0.4,0-0.7c0-0.1,0-0.3-0.1-0.5c-0.1-0.6-0.4-1.4-0.9-2.4
		c-1.3-2.9-3.8-6.9-6.2-10C7,13.6,5.2,17,4.3,19.2c0,0,0,0.1,0,0.1c-0.4,1-0.6,1.7-0.7,2.1c0,0,0,0.1,0,0.1c0,0.1,0,0.3,0,0.4
		c0,0.2,0,0.4,0,0.7C3.5,26.6,6.7,29.7,10.6,29.7z M6.7,21.7c0-0.1,0-0.1,0-0.2c0,0,0,0,0-0.1c0.1-0.2,0.2-0.6,0.4-1.2
		c0,0,0,0,0-0.1c0.5-1.2,1.5-3.1,3.5-5.6c1.3,1.7,2.7,3.9,3.4,5.5c0.2,0.5,0.4,1,0.5,1.3c0,0.1,0,0.2,0,0.3c0,0.1,0,0.2,0,0.4
		c0,2.2-1.8,3.9-3.9,3.9c-2.2,0-3.9-1.8-3.9-3.9C6.7,22,6.7,21.9,6.7,21.7z"/>
	<path class="st0" d="M62.3,26.9c0-0.1-0.1-0.1-0.1-0.2c0,0,0,0,0-0.1c-0.7-1.6-2.4-1.9-3.2-2c-5,0-18.2,0-20.9,0
		c-3.3,0-5,1.1-5,1.1L15.5,39c-0.5,0.3-1.7,2.4-0.6,4.4c1.1,1.9,4.8,0.5,4.8,0.5s12.3-8,13.3-8.5c0.9-0.5,2.3-0.5,3.3,0.9
		c1.2,2.3-1.8,4-1.8,4L24.1,47c-2,1.3-3.8,1.6-4.7,1.6L5,48.7c-2.7,0-4.9,0.6-4.9,2.9c0,3,3.4,3.3,3.4,3.3h23.3c0.8,0,3.6-0.2,6.4-2
		l15.6-10.3c0.1,0,1.5-1,4.1-1c1.4,0,3.4,0,5.9,0c0,0,0,0,0,0c0,0,0.1,0,0.1,0c0.5,0,2.5-0.1,3.5-2C65.1,34.3,63.6,29.6,62.3,26.9z"
		/>
</g>
</svg>
