<?xml version="1.0" encoding="utf-8"?>
<!-- Generator: Adobe Illustrator 19.2.1, SVG Export Plug-In . SVG Version: 6.00 Build 0)  -->
<svg version="1.1" id="Слой_1" xmlns="http://www.w3.org/2000/svg" xmlns:xlink="http://www.w3.org/1999/xlink" x="0px" y="0px"
	 viewBox="0 0 1525 409.3" style="enable-background:new 0 0 1525 409.3;" xml:space="preserve">
<style type="text/css">
	.st0{fill:#FFFFFF;}
	.st1{fill:url(#SVGID_1_);}
	.st2{fill:url(#SVGID_2_);stroke:#FFFFFF;stroke-width:3.000000e-002;}
	.st3{fill:url(#SVGID_3_);}
	.st4{fill:url(#SVGID_4_);stroke:#FFFFFF;stroke-width:3.000000e-002;}
	.st5{fill:url(#SVGID_5_);}
	.st6{fill:url(#SVGID_6_);stroke:#FFFFFF;stroke-width:3.000000e-002;}
	.st7{fill:url(#SVGID_7_);}
	.st8{fill:url(#SVGID_8_);stroke:#FFFFFF;stroke-width:3.000000e-002;}
	.st9{fill:url(#SVGID_9_);}
	.st10{fill:url(#SVGID_10_);stroke:#FFFFFF;stroke-width:3.000000e-002;}
	.st11{clip-path:url(#SVGID_12_);}
	.st12{clip-path:url(#SVGID_14_);}
	.st13{clip-path:url(#SVGID_16_);}
</style>
<path class="st0" d="M610.3,209.6h-36.5v12.1c-0.1,6.6,5.3,12,11.9,12.1c0.1,0,0.1,0,0.2,0h36.3c6.6,0.1,12-5.3,12.1-11.9
	c0-0.1,0-0.1,0-0.2h12.1c-0.1,6.4-2.7,12.6-7.3,17.2c-2.2,2.1-4.8,3.8-7.6,4.9c-2.9,1.3-6.1,1.9-9.3,1.9H586c-3.3,0-6.5-0.7-9.5-2
	c-5.8-2.5-10.4-7.2-12.8-13c-1.3-2.9-1.9-6.1-1.9-9.2v-36.3c0-3.3,0.6-6.5,2-9.5c1.3-2.9,3.1-5.5,5.3-7.7c2.3-2.1,4.9-3.8,7.7-4.9
	c2.9-1.2,6-1.9,9.1-1.9h36.3c3.3,0,6.5,0.7,9.5,2c5.8,2.5,10.4,7.2,12.8,13c1.3,2.9,1.9,6.1,1.9,9.2h-12.1c0.1-6.6-5.3-12-11.9-12.1
	c-0.1,0-0.1,0-0.2,0H586c-6.6-0.1-12,5.3-12.1,11.9c0,0.1,0,0.1,0,0.2v12.1h36.4V209.6L610.3,209.6z"/>
<path class="st0" d="M651.4,236.7h9.2v-36.9c0-2.4,0.5-4.8,1.4-7c0.9-2.2,2.2-4.2,3.9-5.9c1.7-1.7,3.7-3.1,5.9-4
	c2.3-1,4.8-1.5,7.3-1.5h46.1v55.4h9.2v9.2h-83V236.7z M669.8,236.7h46.1v-46.1H679c-5-0.1-9.2,4-9.2,9c0,0.1,0,0.1,0,0.2V236.7
	L669.8,236.7z"/>
<path class="st0" d="M739,181.4h9.5v51.2l45.9-51.2h9.2V246h-9.2v-52.2L748.5,246H739V181.4z"/>
<path class="st0" d="M822,209.1h46.1v-27.7h9.2V246h-9.2v-27.6H822v27.7h-9.4v-64.7h9.2v27.7H822z"/>
<path class="st0" d="M886.6,181.4h9.2v51.2l46.1-51.2h9.2V246H942v-52.2l-46.1,52.1h-9.2V181.4z"/>
<path class="st0" d="M960.6,181.4h9.2v51.2l46.1-51.2h8.8V246h-9.2v-52.2l-46.1,52.1h-8.8V181.4z M1011.3,162.9c0,2.4-0.5,4.8-1.4,7
	c-0.9,2.2-2.2,4.2-3.9,5.9c-1.7,1.7-3.7,3.1-5.9,4c-2.3,1-4.8,1.5-7.3,1.5c-2.4,0-4.9-0.5-7.1-1.4c-2.2-0.9-4.1-2.2-5.8-3.9
	c-3.5-3.5-5.4-8.2-5.5-13.1h9.2c0,5.1,4.1,9.2,9.2,9.2c5.1,0,9.2-4.1,9.2-9.2c0,0,0,0,0,0L1011.3,162.9L1011.3,162.9z"/>
<path class="st0" d="M1147.2,246h-9v-55.4h-46.4V246h-9.2v-64.6h64.6V246z"/>
<path class="st0" d="M1222.4,209.1c0,2.4-0.5,4.8-1.4,7c-1.9,4.4-5.4,7.9-9.9,9.9c-2.3,1-4.8,1.5-7.3,1.5H1167v18.5h-9v-64.5h46.1
	c2.4,0,4.8,0.5,7,1.4c2.2,0.9,4.2,2.3,5.8,3.9c1.7,1.7,3,3.7,4,5.9c1,2.3,1.6,4.7,1.6,7.3L1222.4,209.1L1222.4,209.1z M1213.2,199.8
	c0.1-5-4-9.2-9-9.2c-0.1,0-0.1,0-0.2,0h-36.9v27.8h36.9c5,0.1,9.2-4,9.2-9c0-0.1,0-0.1,0-0.2V199.8L1213.2,199.8z"/>
<path class="st0" d="M1293.5,227.5c0,2.5-0.5,4.9-1.5,7.2c-1.9,4.4-5.4,8-9.9,9.9c-2.3,1-4.7,1.5-7.2,1.5h-27.7
	c-10.1,0.1-18.4-8-18.5-18.2c0-0.1,0-0.2,0-0.3v-27.7c0-2.5,0.5-4.9,1.5-7.2c1.9-4.4,5.4-8,9.9-9.9c2.3-1,4.7-1.5,7.2-1.5h27.7
	c2.4,0,4.8,0.5,7,1.5c2.2,1,4.2,2.3,5.9,3.9c1.7,1.7,3.1,3.7,4,5.9c1,2.2,1.5,4.7,1.5,7.2V227.5z M1284.2,199.8c0.1-5-4-9.2-9-9.2
	c-0.1,0-0.1,0-0.2,0h-27.7c-5-0.1-9.2,4-9.2,9c0,0.1,0,0.1,0,0.2v27.7c-0.1,5,4,9.2,9,9.2c0.1,0,0.1,0,0.2,0h27.7c5,0.1,9.2-4,9.2-9
	c0-0.1,0-0.1,0-0.2V199.8z"/>
<path class="st0" d="M1346.9,181.4c2.4,0,4.8,0.5,7,1.4c2.2,0.9,4.2,2.3,5.8,3.9c1.7,1.7,3,3.7,4,5.9c1,2.3,1.6,4.8,1.6,7.3h-9.2
	c0.1-5-4-9.2-9-9.2c-0.1,0-0.1,0-0.2,0h-27.7c-5-0.1-9.2,4-9.2,9c0,0.1,0,0.1,0,0.2v27.7c-0.1,5,4,9.2,9,9.2c0.1,0,0.1,0,0.2,0h27.7
	c5,0.1,9.2-4,9.2-9c0-0.1,0-0.1,0-0.2h9.2c0,2.4-0.5,4.8-1.4,7c-1.9,4.4-5.4,8-9.9,9.9c-2.3,1-4.8,1.5-7.3,1.5h-27.6
	c-2.4,0-4.8-0.5-7.1-1.4c-4.4-1.9-8-5.4-9.9-9.9c-1-2.3-1.5-4.8-1.5-7.3v-27.7c0-2.4,0.5-4.8,1.4-7c0.9-2.2,2.2-4.1,3.9-5.8
	c1.7-1.7,3.7-3,5.9-4c2.3-1,4.7-1.6,7.3-1.6L1346.9,181.4L1346.9,181.4z"/>
<path class="st0" d="M1403.2,190.6V246h-9.2v-55.4h-27.7v-9.2h64.6v9.2H1403.2z"/>
<path class="st0" d="M1441.9,181.4h9.2V246h-9.2V181.4z"/>
<path class="st0" d="M1525,209.1c0,2.4-0.5,4.8-1.4,7c-0.9,2.2-2.2,4.2-3.9,5.9c-1.7,1.7-3.7,3.1-5.9,4c-2.3,1-4.8,1.5-7.3,1.5
	h-36.9V246h-9.2v-64.6h46.1c2.4,0,4.8,0.5,7,1.4c2.2,0.9,4.1,2.2,5.8,3.9c1.7,1.7,3,3.7,4,5.9c1,2.3,1.6,4.7,1.6,7.3V209.1
	L1525,209.1z M1515.7,199.8c0.1-5-4-9.2-9-9.2c-0.1,0-0.1,0-0.2,0h-36.9v27.8h36.9c5,0.1,9.2-4,9.2-9c0-0.1,0-0.1,0-0.2V199.8
	L1515.7,199.8z"/>
<linearGradient id="SVGID_1_" gradientUnits="userSpaceOnUse" x1="-106.2217" y1="475.1984" x2="-35.5692" y2="439.0471" gradientTransform="matrix(-0.94 0.35 0.35 0.94 -95.3962 -145.1634)">
	<stop  offset="0" style="stop-color:#34A135"/>
	<stop  offset="0.15" style="stop-color:#149737"/>
	<stop  offset="0.28" style="stop-color:#009038"/>
	<stop  offset="1" style="stop-color:#00632D"/>
</linearGradient>
<path class="st1" d="M93.5,327.4c-14.7-24.7,29-82.7,51-114c7-10.1,29.1-27.5,36.4-37.6c-57.6,117.6,3.8,176.1-20.3,176.5
	S100.8,339.5,93.5,327.4z"/>
<linearGradient id="SVGID_2_" gradientUnits="userSpaceOnUse" x1="-56.343" y1="-69.4448" x2="32.8704" y2="-115.1119" gradientTransform="matrix(-0.89 -0.45 -0.45 0.89 83.5468 311.5278)">
	<stop  offset="0" style="stop-color:#86CBC9"/>
	<stop  offset="0.5" style="stop-color:#007AB1"/>
	<stop  offset="0.99" style="stop-color:#0E67A4"/>
</linearGradient>
<path class="st2" d="M79.8,227c22-38.3,60.5-49.9,87.6-57.3c8.7-2.4,17.6-4.3,26.4-6.6c-22.7,23.9-43.7,49.4-62.7,76.4
	c-46,67.1-31,107.1-40.4,82.2S69.7,244.5,79.8,227z"/>
<linearGradient id="SVGID_3_" gradientUnits="userSpaceOnUse" x1="-60.2888" y1="1075.0177" x2="12.1959" y2="1037.9181" gradientTransform="matrix(3.978298e-002 0.9992 0.9992 -3.978298e-002 -812.3651 370.6724)">
	<stop  offset="0" style="stop-color:#FFE900"/>
	<stop  offset="7.000000e-002" style="stop-color:#F7E500"/>
	<stop  offset="0.28" style="stop-color:#E3DA00"/>
	<stop  offset="1" style="stop-color:#FFDC00"/>
</linearGradient>
<path class="st3" d="M289.9,365.8c-28.5,7.1-69-50.5-91.4-80.1c-7.2-9.5-16.2-35.3-23.4-45c92.5,87.4,169.2,45.3,161.4,68.3
	S304,362.3,289.9,365.8z"/>
<linearGradient id="SVGID_4_" gradientUnits="userSpaceOnUse" x1="-458.7786" y1="377.3328" x2="-368.4703" y2="331.1176" gradientTransform="matrix(-0.7077 0.7065 0.7065 0.7077 -325.6382 340.8981)">
	<stop  offset="0" style="stop-color:#FDE700"/>
	<stop  offset="0.51" style="stop-color:#E3DA00"/>
	<stop  offset="1" style="stop-color:#99BE1A"/>
</linearGradient>
<path class="st4" d="M189.7,350.9c-29-31.5-27-71.3-24.8-99.1c0.7-8.9,1.8-18,2.7-27c15.1,28.2,32.3,55.2,51.4,80.8
	c48.3,62.4,91.5,59.1,64.6,61.2C256.7,369,202.9,365.4,189.7,350.9z"/>
<linearGradient id="SVGID_5_" gradientUnits="userSpaceOnUse" x1="526.3083" y1="1224.4525" x2="596.4166" y2="1188.5623" gradientTransform="matrix(0.9625 0.2711 0.2711 -0.9625 -544.4281 1229.5519)">
	<stop  offset="0" style="stop-color:#DE4D1F"/>
	<stop  offset="0.14" style="stop-color:#DC3418"/>
	<stop  offset="0.28" style="stop-color:#DA2012"/>
	<stop  offset="1" style="stop-color:#D80912"/>
</linearGradient>
<path class="st5" d="M397,191.1c-2.9,29.1-71.6,51.4-107.4,64.6c-11.5,4.3-39.2,5.7-50.9,9.8c114.8-63.6,100.7-148.1,120-134.3
	C378,145,398.5,176.7,397,191.1z"/>
<linearGradient id="SVGID_6_" gradientUnits="userSpaceOnUse" x1="-177.6246" y1="908.6572" x2="-86.0707" y2="861.7982" gradientTransform="matrix(0.4532 0.8914 0.8914 -0.4532 -419.8416 759.2645)">
	<stop  offset="0" style="stop-color:#EF8F00"/>
	<stop  offset="0.49" style="stop-color:#E95507"/>
	<stop  offset="1" style="stop-color:#E0300F"/>
</linearGradient>
<path class="st6" d="M348.8,282.4c-39.9,18.8-77.1,5.8-102.9-4c-8.3-3.2-16.5-6.8-24.8-10.1c32.1-6.5,63.7-15.3,94.5-26.4
	c75.9-28.5,87.6-70.5,80.4-44.3S367,273.8,348.8,282.4z"/>
<linearGradient id="SVGID_7_" gradientUnits="userSpaceOnUse" x1="832.3931" y1="727.49" x2="904.5524" y2="690.5527" gradientTransform="matrix(0.5553 -0.8317 -0.8317 -0.5553 372.9515 1242.1029)">
	<stop  offset="0" style="stop-color:#6D2E7C"/>
	<stop  offset="4.000000e-002" style="stop-color:#712E7D"/>
	<stop  offset="0.28" style="stop-color:#852B80"/>
	<stop  offset="0.98" style="stop-color:#851F66"/>
</linearGradient>
<path class="st7" d="M262.6,47.6c26.7,10.9,24.7,82.2,25,120c0.1,12-8,38.8-8,51C258,91.8,172.6,81.7,192.4,67.3
	S249.4,42.2,262.6,47.6z"/>
<linearGradient id="SVGID_8_" gradientUnits="userSpaceOnUse" x1="399.7094" y1="796.2233" x2="488.161" y2="750.9579" gradientTransform="matrix(0.9878 -0.1556 -0.1556 -0.9878 -37.3601 978.4841)">
	<stop  offset="0" style="stop-color:#A13950"/>
	<stop  offset="0.5" style="stop-color:#A61C46"/>
	<stop  offset="1" style="stop-color:#A51954"/>
</linearGradient>
<path class="st8" d="M333,118.7c4.3,43.1-20.7,74.9-38.9,96.6c-5.8,7-12,13.8-18,20.7c4.7-32.1,7.1-64.6,7-97.1
	c-1.4-80-37.4-102.7-15-88.7S331.1,99,333,118.7z"/>
<linearGradient id="SVGID_9_" gradientUnits="userSpaceOnUse" x1="460.3244" y1="294.0852" x2="531.534" y2="257.6341" gradientTransform="matrix(-0.62 -0.79 -0.79 0.62 673.4517 360.2733)">
	<stop  offset="0" style="stop-color:#A4C5D6"/>
	<stop  offset="0.14" style="stop-color:#8AAFCD"/>
	<stop  offset="0.28" style="stop-color:#769EC5"/>
	<stop  offset="1" style="stop-color:#1F3569"/>
</linearGradient>
<path class="st9" d="M74.3,128.2c19.4-22.3,86.8-0.6,122.9,9.6c11.5,3.2,34.3,18.3,45.9,21.8C115,144.9,76.2,223.1,69.2,200.3
	S64.7,139.2,74.3,128.2z"/>
<linearGradient id="SVGID_10_" gradientUnits="userSpaceOnUse" x1="461.0814" y1="224.453" x2="553.347" y2="177.2264" gradientTransform="matrix(0.1573 -0.9876 -0.9876 -0.1573 291.6277 670.8165)">
	<stop  offset="0" style="stop-color:#1A6BB3"/>
	<stop  offset="0.5" style="stop-color:#124387"/>
	<stop  offset="1" style="stop-color:#2E2678"/>
</linearGradient>
<path class="st10" d="M166.1,80.9c42.6,7.9,64.3,40.4,78.9,63.7c4.7,7.4,9.1,15.3,13.7,22.9c-29.2-13.5-59.3-24.7-90.2-33.6
	c-76.8-20.9-110.7,7.1-89.6-10.4S146.7,77.4,166.1,80.9z"/>
<path class="st0" d="M250.5,367.9c-44.3-25.3-79.6-67-108.9-107.7c-30.2-42.2-51.7-96.2-60-147.3C77,84.7,77.5,48.1,103,30
	s62.9,1.5,85.2,15.3c43.2,26.7,78.2,67.8,106.5,109.5c25.6,41.7,45.9,86.8,55.3,134.8c5.5,28.8,7,66.3-17,87.5
	c-11.5,10.3-26.6,11.1-41.6,7.9C276.6,381.7,261.5,374.2,250.5,367.9 M84.4,9.1C52.8,31.6,64.9,88.2,72.6,118.7
	c12.4,49,37.5,93.9,64.9,136.1c26.2,40.3,55.4,78,91.8,110c27.3,23.8,69.5,53.9,107.9,41.9c36.9-11.5,32.7-64.8,28.1-93.7
	c-8.8-53.8-35.7-104.3-64.7-150l-3.1-4.7c-3-4.8-6.7-10.5-7.5-11.8c-29-43.7-62.4-84.5-104.9-116.2c-15-11.4-35.6-23.9-56.2-28.5
	C113.4-1.7,97.8-0.4,84.4,9"/>
<g>
	<defs>
		<path id="SVGID_11_" d="M250.5,367.9c-44.3-25.3-79.6-67-108.9-107.7c-30.2-42.2-51.7-96.2-60-147.3C77,84.7,77.5,48.1,103,30
			s62.9,1.5,85.2,15.3c43.2,26.7,78.2,67.8,106.5,109.5c25.6,41.7,45.9,86.8,55.3,134.8c5.5,28.8,7,66.3-17,87.5
			c-11.5,10.3-26.6,11.1-41.6,7.9C276.6,381.7,261.5,374.2,250.5,367.9 M84.4,9.1C52.8,31.6,64.9,88.2,72.6,118.7
			c12.4,49,37.5,93.9,64.9,136.1c26.2,40.3,55.4,78,91.8,110c27.3,23.8,69.5,53.9,107.9,41.9c36.9-11.5,32.7-64.8,28.1-93.7
			c-8.8-53.8-35.7-104.3-64.7-150l-3.1-4.7c-3-4.8-6.7-10.5-7.5-11.8c-29-43.7-62.4-84.5-104.9-116.2c-15-11.4-35.6-23.9-56.2-28.5
			C113.4-1.7,97.8-0.4,84.4,9"/>
	</defs>
	<use xlink:href="#SVGID_11_"  style="overflow:visible;fill:#FFFFFF;"/>
	<clipPath id="SVGID_12_">
		<use xlink:href="#SVGID_11_"  style="overflow:visible;"/>
	</clipPath>
	<g class="st11">
		
			<rect x="28.7" y="14.5" transform="matrix(0.2137 -0.9769 0.9769 0.2137 -37.026 374.5215)" class="st0" width="370.8" height="391.5"/>
	</g>
</g>
<path class="st0" d="M267.7,52.7c28-11.9,65.7-21.8,92.6-2.4c25.9,18.9,17,60.1,9,85.5c-15.9,50.1-50.3,95.1-85.2,133.5
	c-36.2,39.9-86.2,73.4-136.3,93.1c-27.5,10.8-64.6,18.5-88.8-3.3c-24.3-21.8-12.2-63.8-3.3-89.2c17.1-48.9,50.9-93,86.3-130.5
	C178.9,103.8,220.5,72.9,267.7,52.7 M288,32.3c-52.7,20.7-98,58.8-137.9,98.2c-0.8,0.7-3,3-5.6,5.6l-8.8,8.7
	c-38.1,39-72,81.6-94.8,131.4c-14.1,31.1-28.7,79.5,1,106.2c29.7,26.7,84.6,2.1,113.8-12.2c47-23.3,87-58.6,123.6-95.5
	c35.2-35.3,66.9-73.1,91.2-116.8c18.3-32.7,39.4-81.9,18.7-118c-9-15.8-25-21.1-42.4-21.1C326.2,18.8,303.4,26.3,288,32.3"/>
<g>
	<defs>
		<path id="SVGID_13_" d="M267.7,52.7c28-11.9,65.7-21.8,92.6-2.4c25.9,18.9,17,60.1,9,85.5c-15.9,50.1-50.3,95.1-85.2,133.5
			c-36.2,39.9-86.2,73.4-136.3,93.1c-27.5,10.8-64.6,18.5-88.8-3.3c-24.3-21.8-12.2-63.8-3.3-89.2c17.1-48.9,50.9-93,86.3-130.5
			C178.9,103.8,220.5,72.9,267.7,52.7 M288,32.3c-52.7,20.7-98,58.8-137.9,98.2c-0.8,0.7-3,3-5.6,5.6l-8.8,8.7
			c-38.1,39-72,81.6-94.8,131.4c-14.1,31.1-28.7,79.5,1,106.2c29.7,26.7,84.6,2.1,113.8-12.2c47-23.3,87-58.6,123.6-95.5
			c35.2-35.3,66.9-73.1,91.2-116.8c18.3-32.7,39.4-81.9,18.7-118c-9-15.8-25-21.1-42.4-21.1C326.2,18.8,303.4,26.3,288,32.3"/>
	</defs>
	<clipPath id="SVGID_14_">
		<use xlink:href="#SVGID_13_"  style="overflow:visible;"/>
	</clipPath>
	<g class="st12">
		<rect x="12.3" y="18.8" class="st0" width="397.7" height="390.5"/>
	</g>
</g>
<path class="st0" d="M90.9,264c-26.6-7.7-58-22.2-61.2-47.6s32.3-44.1,55-54.6c43.9-20.1,96.4-29.5,145.7-33.6
	c49.3-2.1,98.9,1.1,145.5,13.3c27.6,7.4,61,20.9,67.6,46.2c6.3,24.5-26.6,44.4-48.7,55.2c-43.7,21.6-97.2,30.5-146.8,35.3
	c-4.6,0.5-9.3,0.8-14,1.1c-48.3,2.6-96.7-2.8-143.2-16 M70.3,158.1c-30.2,11.2-71.7,32.3-67.8,63.4s58.9,44.8,89,51.2
	c48.5,10.3,99.8,9.4,149.7,6.4c47.9-2.9,94.9-8.9,140.4-22.4c34.1-10,80.9-28.3,89.4-60.3c8.2-30.8-40.2-48.6-67.4-56.6
	c-50.9-14.8-107.8-15.6-161.6-12.7l-7.7,0.5l-11.8,0.7c-52.3,3.6-103.9,11.4-152.3,29.1"/>
<g>
	<defs>
		<path id="SVGID_15_" d="M90.9,264c-26.6-7.7-58-22.2-61.2-47.6s32.3-44.1,55-54.6c43.9-20.1,96.4-29.5,145.7-33.6
			c49.3-2.1,98.9,1.1,145.5,13.3c27.6,7.4,61,20.9,67.6,46.2c6.3,24.5-26.6,44.4-48.7,55.2c-43.7,21.6-97.2,30.5-146.8,35.3
			c-4.6,0.5-9.3,0.8-14,1.1c-48.3,2.6-96.7-2.8-143.2-16 M70.3,158.1c-30.2,11.2-71.7,32.3-67.8,63.4s58.9,44.8,89,51.2
			c48.5,10.3,99.8,9.4,149.7,6.4c47.9-2.9,94.9-8.9,140.4-22.4c34.1-10,80.9-28.3,89.4-60.3c8.2-30.8-40.2-48.6-67.4-56.6
			c-50.9-14.8-107.8-15.6-161.6-12.7l-7.7,0.5l-11.8,0.7c-52.3,3.6-103.9,11.4-152.3,29.1"/>
	</defs>
	<use xlink:href="#SVGID_15_"  style="overflow:visible;fill:#FFFFFF;"/>
	<clipPath id="SVGID_16_">
		<use xlink:href="#SVGID_15_"  style="overflow:visible;"/>
	</clipPath>
	<g class="st13">
		
			<rect x="-0.2" y="127.5" transform="matrix(0.9982 -5.948060e-002 5.948060e-002 0.9982 -11.6673 14.6639)" class="st0" width="481.3" height="151.6"/>
	</g>
</g>
</svg>
