<?xml version="1.0" encoding="utf-8"?>
<!-- Generator: Adobe Illustrator 19.2.1, SVG Export Plug-In . SVG Version: 6.00 Build 0)  -->
<svg version="1.1" id="Слой_1" xmlns="http://www.w3.org/2000/svg" xmlns:xlink="http://www.w3.org/1999/xlink" x="0px" y="0px"
	 viewBox="0 0 768 1024" style="enable-background:new 0 0 768 1024;" xml:space="preserve">
<style type="text/css">
	.st0{fill:#FFFFFF;}
</style>
<path class="st0" d="M576,64H0v896h768V256L576,64z M64,128h255.8c-13.2,4.1-27.3,15-34.6,42.9c-13.3,49.4-7,130.8,15.6,209.3
	c-24.1,81.2-122.6,276.7-129.3,288.3c-15.6,4.9-65.3,23.6-107.5,59.8C64,728.3,64,128,64,128z M347.1,435.5
	c57.6,149.8,95,149.5,135.2,167.6c-84,12.9-148.1,22.2-232.5,59.4C246.1,668.9,326.3,516.6,347.1,435.5z M704,896H65.8H64v-0.4
	c0.8,0.1,1.1,0.4,1.8,0.4c33.8,0,84.7-21,180.6-182.4c38.2-15.4,72.1-26.9,78.5-28.9c58.8-14.9,125-26.6,187.6-33.4
	c54.4,27.2,126.7,45.7,167.8,48.3c9.6,0.5,16.1-1.2,23.8-2V896z M704,585.4c-23.7-14.7-54-25-89.1-25c-24.3,0-50.6,1.4-78.7,4.4
	c-26.9-13-92.6-32.7-147.2-190.2C406.1,270.9,401.7,201,401.7,201c6.8-52.9-23.3-72.8-51.6-72.8c0,0-0.3-0.1-0.3-0.1H512l192,192
	V585.4z"/>
</svg>
