<?xml version="1.0" encoding="utf-8"?>
<!-- Generator: Adobe Illustrator 19.2.1, SVG Export Plug-In . SVG Version: 6.00 Build 0)  -->
<svg version="1.1" id="Слой_1" xmlns="http://www.w3.org/2000/svg" xmlns:xlink="http://www.w3.org/1999/xlink" x="0px" y="0px"
	 viewBox="0 0 1024 1024" style="enable-background:new 0 0 1024 1024;" xml:space="preserve">
<style type="text/css">
	.st0{fill:none;}
	.st1{fill:#FFFFFF;}
</style>
<g>
	<title></title>
	<rect id="canvas_background" x="-1" y="-1" class="st0" width="1026" height="1026"/>
</g>
<g>
	<title></title>
	<g id="svg_1" transform="translate(0,1024) scale(0.10000000149011612,-0.10000000149011612) ">
		<path id="svg_2" class="st1" d="M4820,9439c-1036-77-1981-503-2723-1228C1121,7259,653,5911,826,4557
			c216-1693,1410-3103,3050-3602c1268-386,2679-157,3754,608c1321,941,2008,2502,1804,4100c-216,1693-1410,3103-3050,3602
			C5896,9414,5327,9477,4820,9439z M5151,6750c222-22,333-57,383-122c13-18,34-62,46-98c26-76,27-163,11-813c-10-406-4-531,29-621
			c39-103,125-150,201-111c69,36,230,213,335,370c243,360,391,639,569,1070c36,85,84,141,134,154c20,6,303,11,651,12l615,2l52-22
			c67-30,93-69,93-140c0-135-141-412-383-751c-33-47-158-213-277-370c-263-346-320-427-360-511c-50-106-38-193,41-296
			c23-29,139-146,258-260c333-319,484-487,607-671c88-133,122-231,108-315c-7-46-53-101-105-128c-62-31-157-37-680-44l-495-7l-80,27
			c-204,68-340,181-649,539c-171,198-298,295-386,296c-81,0-184-108-228-242c-30-90-41-159-50-315c-11-184-33-227-146-274
			c-41-18-551-24-686-10c-271,30-522,115-771,262c-361,212-582,402-819,704c-412,526-693,974-1034,1650c-132,263-287,603-312,684
			c-25,84,11,153,93,179c28,9,184,14,544,19l505,5l59-22c93-36,132-82,195-235c54-129,345-713,436-876c93-165,192-303,277-385
			c105-103,152-128,226-122c63,6,80,20,119,105c95,205,110,898,25,1170c-49,155-122,214-324,257c-35,8-35,20-3,67
			c78,112,217,166,482,188C4602,6761,5032,6762,5151,6750z"/>
	</g>
</g>
</svg>
